<mxfile host="app.diagrams.net" agent="Mozilla/5.0 (Windows NT 10.0; Win64; x64) AppleWebKit/537.36 (KHTML, like Gecko) Chrome/138.0.0.0 YaBrowser/25.8.0.0 Safari/537.36" version="28.2.5">
  <diagram name="Страница — 1" id="7gpo0UBaWytLgm6S7P8Y">
    <mxGraphModel dx="828" dy="477" grid="1" gridSize="10" guides="1" tooltips="1" connect="1" arrows="1" fold="1" page="1" pageScale="1" pageWidth="1200" pageHeight="1920" math="0" shadow="0">
      <root>
        <mxCell id="0" />
        <mxCell id="1" parent="0" />
        <mxCell id="O1ROTY8PQ47SzDHC7NVD-1" value="Плательщик" style="shape=umlActor;verticalLabelPosition=bottom;verticalAlign=top;html=1;outlineConnect=0;" vertex="1" parent="1">
          <mxGeometry x="230" y="605" width="60" height="90" as="geometry" />
        </mxCell>
        <mxCell id="O1ROTY8PQ47SzDHC7NVD-2" value="Ученик" style="shape=umlActor;verticalLabelPosition=bottom;verticalAlign=top;html=1;outlineConnect=0;" vertex="1" parent="1">
          <mxGeometry x="240" y="440" width="60" height="80" as="geometry" />
        </mxCell>
        <mxCell id="O1ROTY8PQ47SzDHC7NVD-3" value="Хореограф" style="shape=umlActor;verticalLabelPosition=bottom;verticalAlign=top;html=1;outlineConnect=0;" vertex="1" parent="1">
          <mxGeometry x="960" y="515" width="70" height="90" as="geometry" />
        </mxCell>
        <mxCell id="O1ROTY8PQ47SzDHC7NVD-18" value="Преподавание танцев&lt;div&gt;&lt;br&gt;&lt;/div&gt;&lt;div&gt;&lt;br&gt;&lt;/div&gt;&lt;div&gt;&lt;br&gt;&lt;/div&gt;&lt;div&gt;&lt;br&gt;&lt;/div&gt;&lt;div&gt;&lt;br&gt;&lt;/div&gt;&lt;div&gt;&lt;br&gt;&lt;/div&gt;&lt;div&gt;&lt;br&gt;&lt;/div&gt;&lt;div&gt;&lt;br&gt;&lt;/div&gt;&lt;div&gt;&lt;br&gt;&lt;/div&gt;&lt;div&gt;&lt;br&gt;&lt;/div&gt;&lt;div&gt;&lt;br&gt;&lt;/div&gt;&lt;div&gt;&lt;br&gt;&lt;/div&gt;&lt;div&gt;&lt;br&gt;&lt;/div&gt;&lt;div&gt;&lt;br&gt;&lt;/div&gt;&lt;div&gt;&lt;br&gt;&lt;/div&gt;&lt;div&gt;&lt;br&gt;&lt;/div&gt;&lt;div&gt;&lt;br&gt;&lt;/div&gt;" style="rounded=0;whiteSpace=wrap;html=1;" vertex="1" parent="1">
          <mxGeometry x="330" y="400" width="590" height="320" as="geometry" />
        </mxCell>
        <mxCell id="O1ROTY8PQ47SzDHC7NVD-28" style="edgeStyle=orthogonalEdgeStyle;rounded=0;orthogonalLoop=1;jettySize=auto;html=1;exitX=1;exitY=0.5;exitDx=0;exitDy=0;entryX=1;entryY=0.5;entryDx=0;entryDy=0;shape=filledEdge;dashed=1;" edge="1" parent="1" source="O1ROTY8PQ47SzDHC7NVD-20" target="O1ROTY8PQ47SzDHC7NVD-22">
          <mxGeometry relative="1" as="geometry" />
        </mxCell>
        <mxCell id="O1ROTY8PQ47SzDHC7NVD-29" value="include" style="edgeLabel;html=1;align=center;verticalAlign=middle;resizable=0;points=[];" vertex="1" connectable="0" parent="O1ROTY8PQ47SzDHC7NVD-28">
          <mxGeometry x="-0.0375" relative="1" as="geometry">
            <mxPoint as="offset" />
          </mxGeometry>
        </mxCell>
        <mxCell id="O1ROTY8PQ47SzDHC7NVD-20" value="Выбрать хореографа" style="ellipse;whiteSpace=wrap;html=1;" vertex="1" parent="1">
          <mxGeometry x="380" y="455" width="120" height="25" as="geometry" />
        </mxCell>
        <mxCell id="O1ROTY8PQ47SzDHC7NVD-21" value="Посетить занятие" style="ellipse;whiteSpace=wrap;html=1;" vertex="1" parent="1">
          <mxGeometry x="380" y="530" width="120" height="30" as="geometry" />
        </mxCell>
        <mxCell id="O1ROTY8PQ47SzDHC7NVD-22" value="Выбрать группу" style="ellipse;whiteSpace=wrap;html=1;" vertex="1" parent="1">
          <mxGeometry x="380" y="490" width="120" height="35" as="geometry" />
        </mxCell>
        <mxCell id="O1ROTY8PQ47SzDHC7NVD-23" value="Оплатить занятие" style="ellipse;whiteSpace=wrap;html=1;" vertex="1" parent="1">
          <mxGeometry x="380" y="632.5" width="120" height="35" as="geometry" />
        </mxCell>
        <mxCell id="O1ROTY8PQ47SzDHC7NVD-24" value="Создать расписание" style="ellipse;whiteSpace=wrap;html=1;" vertex="1" parent="1">
          <mxGeometry x="740" y="480" width="120" height="35" as="geometry" />
        </mxCell>
        <mxCell id="O1ROTY8PQ47SzDHC7NVD-34" style="edgeStyle=orthogonalEdgeStyle;rounded=0;orthogonalLoop=1;jettySize=auto;html=1;dashed=1;" edge="1" parent="1" source="O1ROTY8PQ47SzDHC7NVD-25" target="O1ROTY8PQ47SzDHC7NVD-31">
          <mxGeometry relative="1" as="geometry">
            <Array as="points">
              <mxPoint x="880" y="590" />
              <mxPoint x="880" y="548" />
            </Array>
          </mxGeometry>
        </mxCell>
        <mxCell id="O1ROTY8PQ47SzDHC7NVD-35" value="include" style="edgeLabel;html=1;align=center;verticalAlign=middle;resizable=0;points=[];" vertex="1" connectable="0" parent="O1ROTY8PQ47SzDHC7NVD-34">
          <mxGeometry x="-0.0938" relative="1" as="geometry">
            <mxPoint as="offset" />
          </mxGeometry>
        </mxCell>
        <mxCell id="O1ROTY8PQ47SzDHC7NVD-25" value="Создать ведомость" style="ellipse;whiteSpace=wrap;html=1;" vertex="1" parent="1">
          <mxGeometry x="740" y="580" width="120" height="35" as="geometry" />
        </mxCell>
        <mxCell id="O1ROTY8PQ47SzDHC7NVD-32" style="edgeStyle=orthogonalEdgeStyle;rounded=0;orthogonalLoop=1;jettySize=auto;html=1;entryX=0;entryY=0.5;entryDx=0;entryDy=0;dashed=1;" edge="1" parent="1" source="O1ROTY8PQ47SzDHC7NVD-26" target="O1ROTY8PQ47SzDHC7NVD-31">
          <mxGeometry relative="1" as="geometry">
            <Array as="points">
              <mxPoint x="720" y="640" />
              <mxPoint x="720" y="548" />
            </Array>
          </mxGeometry>
        </mxCell>
        <mxCell id="O1ROTY8PQ47SzDHC7NVD-33" value="include" style="edgeLabel;html=1;align=center;verticalAlign=middle;resizable=0;points=[];" vertex="1" connectable="0" parent="O1ROTY8PQ47SzDHC7NVD-32">
          <mxGeometry x="0.1874" y="-2" relative="1" as="geometry">
            <mxPoint as="offset" />
          </mxGeometry>
        </mxCell>
        <mxCell id="O1ROTY8PQ47SzDHC7NVD-26" value="Провести занятие" style="ellipse;whiteSpace=wrap;html=1;" vertex="1" parent="1">
          <mxGeometry x="740" y="632.5" width="120" height="35" as="geometry" />
        </mxCell>
        <mxCell id="O1ROTY8PQ47SzDHC7NVD-31" value="Заполнить посещаемость" style="ellipse;whiteSpace=wrap;html=1;" vertex="1" parent="1">
          <mxGeometry x="740" y="530" width="120" height="35" as="geometry" />
        </mxCell>
        <mxCell id="O1ROTY8PQ47SzDHC7NVD-41" value="" style="endArrow=none;html=1;rounded=0;entryX=0;entryY=0.5;entryDx=0;entryDy=0;" edge="1" parent="1" target="O1ROTY8PQ47SzDHC7NVD-20">
          <mxGeometry width="50" height="50" relative="1" as="geometry">
            <mxPoint x="300" y="480" as="sourcePoint" />
            <mxPoint x="370" y="442.5" as="targetPoint" />
          </mxGeometry>
        </mxCell>
        <mxCell id="O1ROTY8PQ47SzDHC7NVD-42" value="" style="endArrow=none;html=1;rounded=0;entryX=0;entryY=0.5;entryDx=0;entryDy=0;" edge="1" parent="1" target="O1ROTY8PQ47SzDHC7NVD-22">
          <mxGeometry width="50" height="50" relative="1" as="geometry">
            <mxPoint x="300" y="480" as="sourcePoint" />
            <mxPoint x="380" y="492.5" as="targetPoint" />
          </mxGeometry>
        </mxCell>
        <mxCell id="O1ROTY8PQ47SzDHC7NVD-43" value="" style="endArrow=none;html=1;rounded=0;entryX=0;entryY=0.5;entryDx=0;entryDy=0;" edge="1" parent="1" target="O1ROTY8PQ47SzDHC7NVD-21">
          <mxGeometry width="50" height="50" relative="1" as="geometry">
            <mxPoint x="300" y="480" as="sourcePoint" />
            <mxPoint x="590" y="760" as="targetPoint" />
          </mxGeometry>
        </mxCell>
        <mxCell id="O1ROTY8PQ47SzDHC7NVD-44" value="" style="endArrow=none;html=1;rounded=0;exitX=0;exitY=0.5;exitDx=0;exitDy=0;" edge="1" parent="1" source="O1ROTY8PQ47SzDHC7NVD-23" target="O1ROTY8PQ47SzDHC7NVD-1">
          <mxGeometry width="50" height="50" relative="1" as="geometry">
            <mxPoint x="430" y="770" as="sourcePoint" />
            <mxPoint x="510" y="835" as="targetPoint" />
          </mxGeometry>
        </mxCell>
        <mxCell id="O1ROTY8PQ47SzDHC7NVD-45" value="" style="endArrow=none;html=1;rounded=0;exitX=1;exitY=0.5;exitDx=0;exitDy=0;" edge="1" parent="1" source="O1ROTY8PQ47SzDHC7NVD-24" target="O1ROTY8PQ47SzDHC7NVD-3">
          <mxGeometry width="50" height="50" relative="1" as="geometry">
            <mxPoint x="940" y="760" as="sourcePoint" />
            <mxPoint x="850" y="760" as="targetPoint" />
          </mxGeometry>
        </mxCell>
        <mxCell id="O1ROTY8PQ47SzDHC7NVD-46" value="" style="endArrow=none;html=1;rounded=0;exitX=0;exitY=0.3333333333333333;exitDx=0;exitDy=0;exitPerimeter=0;entryX=1;entryY=0.5;entryDx=0;entryDy=0;" edge="1" parent="1" source="O1ROTY8PQ47SzDHC7NVD-3" target="O1ROTY8PQ47SzDHC7NVD-26">
          <mxGeometry width="50" height="50" relative="1" as="geometry">
            <mxPoint x="870" y="770" as="sourcePoint" />
            <mxPoint x="780" y="770" as="targetPoint" />
            <Array as="points">
              <mxPoint x="910" y="600" />
            </Array>
          </mxGeometry>
        </mxCell>
        <mxCell id="O1ROTY8PQ47SzDHC7NVD-47" value="" style="endArrow=none;html=1;rounded=0;entryX=0.956;entryY=0.629;entryDx=0;entryDy=0;entryPerimeter=0;exitX=0;exitY=0.3333333333333333;exitDx=0;exitDy=0;exitPerimeter=0;" edge="1" parent="1" source="O1ROTY8PQ47SzDHC7NVD-3" target="O1ROTY8PQ47SzDHC7NVD-25">
          <mxGeometry width="50" height="50" relative="1" as="geometry">
            <mxPoint x="950" y="560" as="sourcePoint" />
            <mxPoint x="790" y="770" as="targetPoint" />
          </mxGeometry>
        </mxCell>
      </root>
    </mxGraphModel>
  </diagram>
</mxfile>
